<mxfile host="app.diagrams.net" modified="2023-11-05T21:16:22.603Z" agent="Mozilla/5.0 (X11; Linux x86_64) AppleWebKit/537.36 (KHTML, like Gecko) Chrome/119.0.0.0 Safari/537.36" etag="8PDKFQ-p51t3jmJCcVQY" version="22.0.8" type="device">
  <diagram name="Page-1" id="c37626ed-c26b-45fb-9056-f9ebc6bb27b6">
    <mxGraphModel dx="1434" dy="838" grid="1" gridSize="10" guides="1" tooltips="1" connect="1" arrows="1" fold="1" page="1" pageScale="1" pageWidth="1100" pageHeight="850" background="none" math="0" shadow="0">
      <root>
        <mxCell id="0" />
        <mxCell id="1" parent="0" />
        <mxCell id="9B5KRaF1c3HkOnyzR9to-1" value="10" style="shape=mxgraph.cisco.routers.router;sketch=0;html=1;pointerEvents=1;dashed=0;fillColor=#036897;strokeColor=#ffffff;strokeWidth=2;verticalLabelPosition=bottom;verticalAlign=top;align=center;outlineConnect=0;" vertex="1" parent="1">
          <mxGeometry x="190" y="240" width="78" height="53" as="geometry" />
        </mxCell>
        <mxCell id="9B5KRaF1c3HkOnyzR9to-2" value="13" style="shape=mxgraph.cisco.routers.router;sketch=0;html=1;pointerEvents=1;dashed=0;fillColor=#036897;strokeColor=#ffffff;strokeWidth=2;verticalLabelPosition=bottom;verticalAlign=top;align=center;outlineConnect=0;" vertex="1" parent="1">
          <mxGeometry x="160" y="346" width="78" height="53" as="geometry" />
        </mxCell>
        <mxCell id="9B5KRaF1c3HkOnyzR9to-3" value="9" style="shape=mxgraph.cisco.routers.router;sketch=0;html=1;pointerEvents=1;dashed=0;fillColor=#036897;strokeColor=#ffffff;strokeWidth=2;verticalLabelPosition=bottom;verticalAlign=top;align=center;outlineConnect=0;" vertex="1" parent="1">
          <mxGeometry x="130" y="450" width="78" height="53" as="geometry" />
        </mxCell>
        <mxCell id="9B5KRaF1c3HkOnyzR9to-4" value="12" style="shape=mxgraph.cisco.routers.router;sketch=0;html=1;pointerEvents=1;dashed=0;fillColor=#036897;strokeColor=#ffffff;strokeWidth=2;verticalLabelPosition=bottom;verticalAlign=top;align=center;outlineConnect=0;" vertex="1" parent="1">
          <mxGeometry x="224" y="120" width="78" height="53" as="geometry" />
        </mxCell>
        <mxCell id="9B5KRaF1c3HkOnyzR9to-5" value="1" style="shape=mxgraph.cisco.routers.router;sketch=0;html=1;pointerEvents=1;dashed=0;fillColor=#036897;strokeColor=#ffffff;strokeWidth=2;verticalLabelPosition=bottom;verticalAlign=top;align=center;outlineConnect=0;" vertex="1" parent="1">
          <mxGeometry x="350" y="80" width="78" height="53" as="geometry" />
        </mxCell>
        <mxCell id="9B5KRaF1c3HkOnyzR9to-6" value="4" style="shape=mxgraph.cisco.routers.router;sketch=0;html=1;pointerEvents=1;dashed=0;fillColor=#036897;strokeColor=#ffffff;strokeWidth=2;verticalLabelPosition=bottom;verticalAlign=top;align=center;outlineConnect=0;" vertex="1" parent="1">
          <mxGeometry x="820" y="397" width="78" height="53" as="geometry" />
        </mxCell>
        <mxCell id="9B5KRaF1c3HkOnyzR9to-7" value="11" style="shape=mxgraph.cisco.routers.router;sketch=0;html=1;pointerEvents=1;dashed=0;fillColor=#036897;strokeColor=#ffffff;strokeWidth=2;verticalLabelPosition=bottom;verticalAlign=top;align=center;outlineConnect=0;" vertex="1" parent="1">
          <mxGeometry x="868" y="303" width="78" height="53" as="geometry" />
        </mxCell>
        <mxCell id="9B5KRaF1c3HkOnyzR9to-8" value="8" style="shape=mxgraph.cisco.routers.router;sketch=0;html=1;pointerEvents=1;dashed=0;fillColor=#036897;strokeColor=#ffffff;strokeWidth=2;verticalLabelPosition=bottom;verticalAlign=top;align=center;outlineConnect=0;" vertex="1" parent="1">
          <mxGeometry x="790" y="227" width="78" height="53" as="geometry" />
        </mxCell>
        <mxCell id="9B5KRaF1c3HkOnyzR9to-9" value="14" style="shape=mxgraph.cisco.routers.router;sketch=0;html=1;pointerEvents=1;dashed=0;fillColor=#036897;strokeColor=#ffffff;strokeWidth=2;verticalLabelPosition=bottom;verticalAlign=top;align=center;outlineConnect=0;" vertex="1" parent="1">
          <mxGeometry x="660" y="346" width="78" height="53" as="geometry" />
        </mxCell>
        <mxCell id="9B5KRaF1c3HkOnyzR9to-10" value="15" style="shape=mxgraph.cisco.routers.router;sketch=0;html=1;pointerEvents=1;dashed=0;fillColor=#036897;strokeColor=#ffffff;strokeWidth=2;verticalLabelPosition=bottom;verticalAlign=top;align=center;outlineConnect=0;" vertex="1" parent="1">
          <mxGeometry x="600" y="250" width="78" height="53" as="geometry" />
        </mxCell>
        <mxCell id="9B5KRaF1c3HkOnyzR9to-11" value="7&lt;br&gt;" style="shape=mxgraph.cisco.routers.router;sketch=0;html=1;pointerEvents=1;dashed=0;fillColor=#036897;strokeColor=#ffffff;strokeWidth=2;verticalLabelPosition=bottom;verticalAlign=top;align=center;outlineConnect=0;" vertex="1" parent="1">
          <mxGeometry x="690" y="174" width="78" height="53" as="geometry" />
        </mxCell>
        <mxCell id="9B5KRaF1c3HkOnyzR9to-12" value="6" style="shape=mxgraph.cisco.routers.router;sketch=0;html=1;pointerEvents=1;dashed=0;fillColor=#036897;strokeColor=#ffffff;strokeWidth=2;verticalLabelPosition=bottom;verticalAlign=top;align=center;outlineConnect=0;" vertex="1" parent="1">
          <mxGeometry x="690" y="80" width="78" height="53" as="geometry" />
        </mxCell>
        <mxCell id="9B5KRaF1c3HkOnyzR9to-13" value="5" style="shape=mxgraph.cisco.routers.router;sketch=0;html=1;pointerEvents=1;dashed=0;fillColor=#036897;strokeColor=#ffffff;strokeWidth=2;verticalLabelPosition=bottom;verticalAlign=top;align=center;outlineConnect=0;" vertex="1" parent="1">
          <mxGeometry x="582" y="143" width="78" height="53" as="geometry" />
        </mxCell>
        <mxCell id="9B5KRaF1c3HkOnyzR9to-14" value="2" style="shape=mxgraph.cisco.routers.router;sketch=0;html=1;pointerEvents=1;dashed=0;fillColor=#036897;strokeColor=#ffffff;strokeWidth=2;verticalLabelPosition=bottom;verticalAlign=top;align=center;outlineConnect=0;" vertex="1" parent="1">
          <mxGeometry x="450" y="187" width="78" height="53" as="geometry" />
        </mxCell>
        <mxCell id="9B5KRaF1c3HkOnyzR9to-15" value="3" style="shape=mxgraph.cisco.routers.router;sketch=0;html=1;pointerEvents=1;dashed=0;fillColor=#036897;strokeColor=#ffffff;strokeWidth=2;verticalLabelPosition=bottom;verticalAlign=top;align=center;outlineConnect=0;" vertex="1" parent="1">
          <mxGeometry x="480" y="90" width="78" height="53" as="geometry" />
        </mxCell>
        <mxCell id="9B5KRaF1c3HkOnyzR9to-16" value="" style="endArrow=none;html=1;rounded=0;" edge="1" parent="1" source="9B5KRaF1c3HkOnyzR9to-14" target="9B5KRaF1c3HkOnyzR9to-15">
          <mxGeometry width="50" height="50" relative="1" as="geometry">
            <mxPoint x="340" y="180" as="sourcePoint" />
            <mxPoint x="390" y="130" as="targetPoint" />
          </mxGeometry>
        </mxCell>
        <mxCell id="9B5KRaF1c3HkOnyzR9to-30" value="80" style="edgeLabel;html=1;align=center;verticalAlign=middle;resizable=0;points=[];" vertex="1" connectable="0" parent="9B5KRaF1c3HkOnyzR9to-16">
          <mxGeometry x="0.0543" y="-1" relative="1" as="geometry">
            <mxPoint as="offset" />
          </mxGeometry>
        </mxCell>
        <mxCell id="9B5KRaF1c3HkOnyzR9to-17" value="" style="endArrow=none;html=1;rounded=0;" edge="1" parent="1" source="9B5KRaF1c3HkOnyzR9to-13" target="9B5KRaF1c3HkOnyzR9to-15">
          <mxGeometry width="50" height="50" relative="1" as="geometry">
            <mxPoint x="320" y="170" as="sourcePoint" />
            <mxPoint x="370" y="120" as="targetPoint" />
          </mxGeometry>
        </mxCell>
        <mxCell id="9B5KRaF1c3HkOnyzR9to-36" value="75" style="edgeLabel;html=1;align=center;verticalAlign=middle;resizable=0;points=[];" vertex="1" connectable="0" parent="9B5KRaF1c3HkOnyzR9to-17">
          <mxGeometry x="-0.3332" y="2" relative="1" as="geometry">
            <mxPoint as="offset" />
          </mxGeometry>
        </mxCell>
        <mxCell id="9B5KRaF1c3HkOnyzR9to-18" value="" style="endArrow=none;html=1;rounded=0;" edge="1" parent="1" source="9B5KRaF1c3HkOnyzR9to-12" target="9B5KRaF1c3HkOnyzR9to-13">
          <mxGeometry width="50" height="50" relative="1" as="geometry">
            <mxPoint x="370" y="380" as="sourcePoint" />
            <mxPoint x="420" y="330" as="targetPoint" />
          </mxGeometry>
        </mxCell>
        <mxCell id="9B5KRaF1c3HkOnyzR9to-37" value="70" style="edgeLabel;html=1;align=center;verticalAlign=middle;resizable=0;points=[];" vertex="1" connectable="0" parent="9B5KRaF1c3HkOnyzR9to-18">
          <mxGeometry x="0.1078" y="1" relative="1" as="geometry">
            <mxPoint as="offset" />
          </mxGeometry>
        </mxCell>
        <mxCell id="9B5KRaF1c3HkOnyzR9to-19" value="" style="endArrow=none;html=1;rounded=0;" edge="1" parent="1" source="9B5KRaF1c3HkOnyzR9to-11" target="9B5KRaF1c3HkOnyzR9to-13">
          <mxGeometry width="50" height="50" relative="1" as="geometry">
            <mxPoint x="730" y="260" as="sourcePoint" />
            <mxPoint x="780" y="210" as="targetPoint" />
          </mxGeometry>
        </mxCell>
        <mxCell id="9B5KRaF1c3HkOnyzR9to-40" value="55" style="edgeLabel;html=1;align=center;verticalAlign=middle;resizable=0;points=[];" vertex="1" connectable="0" parent="9B5KRaF1c3HkOnyzR9to-19">
          <mxGeometry x="0.1232" y="1" relative="1" as="geometry">
            <mxPoint x="1" as="offset" />
          </mxGeometry>
        </mxCell>
        <mxCell id="9B5KRaF1c3HkOnyzR9to-20" value="" style="endArrow=none;html=1;rounded=0;" edge="1" parent="1" source="9B5KRaF1c3HkOnyzR9to-10" target="9B5KRaF1c3HkOnyzR9to-13">
          <mxGeometry width="50" height="50" relative="1" as="geometry">
            <mxPoint x="620" y="290" as="sourcePoint" />
            <mxPoint x="670" y="240" as="targetPoint" />
          </mxGeometry>
        </mxCell>
        <mxCell id="9B5KRaF1c3HkOnyzR9to-38" value="60" style="edgeLabel;html=1;align=center;verticalAlign=middle;resizable=0;points=[];" vertex="1" connectable="0" parent="9B5KRaF1c3HkOnyzR9to-20">
          <mxGeometry x="-0.1562" y="-1" relative="1" as="geometry">
            <mxPoint as="offset" />
          </mxGeometry>
        </mxCell>
        <mxCell id="9B5KRaF1c3HkOnyzR9to-21" value="" style="endArrow=none;html=1;rounded=0;" edge="1" parent="1" source="9B5KRaF1c3HkOnyzR9to-9" target="9B5KRaF1c3HkOnyzR9to-10">
          <mxGeometry width="50" height="50" relative="1" as="geometry">
            <mxPoint x="570" y="390" as="sourcePoint" />
            <mxPoint x="620" y="340" as="targetPoint" />
          </mxGeometry>
        </mxCell>
        <mxCell id="9B5KRaF1c3HkOnyzR9to-39" value="85" style="edgeLabel;html=1;align=center;verticalAlign=middle;resizable=0;points=[];" vertex="1" connectable="0" parent="9B5KRaF1c3HkOnyzR9to-21">
          <mxGeometry x="-0.1923" y="1" relative="1" as="geometry">
            <mxPoint y="-1" as="offset" />
          </mxGeometry>
        </mxCell>
        <mxCell id="9B5KRaF1c3HkOnyzR9to-22" value="" style="endArrow=none;html=1;rounded=0;" edge="1" parent="1" source="9B5KRaF1c3HkOnyzR9to-8" target="9B5KRaF1c3HkOnyzR9to-11">
          <mxGeometry width="50" height="50" relative="1" as="geometry">
            <mxPoint x="800" y="340" as="sourcePoint" />
            <mxPoint x="850" y="290" as="targetPoint" />
          </mxGeometry>
        </mxCell>
        <mxCell id="9B5KRaF1c3HkOnyzR9to-42" value="80" style="edgeLabel;html=1;align=center;verticalAlign=middle;resizable=0;points=[];" vertex="1" connectable="0" parent="9B5KRaF1c3HkOnyzR9to-22">
          <mxGeometry x="-0.2881" relative="1" as="geometry">
            <mxPoint as="offset" />
          </mxGeometry>
        </mxCell>
        <mxCell id="9B5KRaF1c3HkOnyzR9to-23" value="" style="endArrow=none;html=1;rounded=0;" edge="1" parent="1" source="9B5KRaF1c3HkOnyzR9to-7" target="9B5KRaF1c3HkOnyzR9to-8">
          <mxGeometry width="50" height="50" relative="1" as="geometry">
            <mxPoint x="770" y="440" as="sourcePoint" />
            <mxPoint x="820" y="390" as="targetPoint" />
          </mxGeometry>
        </mxCell>
        <mxCell id="9B5KRaF1c3HkOnyzR9to-43" value="65" style="edgeLabel;html=1;align=center;verticalAlign=middle;resizable=0;points=[];" vertex="1" connectable="0" parent="9B5KRaF1c3HkOnyzR9to-23">
          <mxGeometry x="0.2363" relative="1" as="geometry">
            <mxPoint as="offset" />
          </mxGeometry>
        </mxCell>
        <mxCell id="9B5KRaF1c3HkOnyzR9to-24" value="" style="endArrow=none;html=1;rounded=0;" edge="1" parent="1" source="9B5KRaF1c3HkOnyzR9to-6" target="9B5KRaF1c3HkOnyzR9to-7">
          <mxGeometry width="50" height="50" relative="1" as="geometry">
            <mxPoint x="750" y="540" as="sourcePoint" />
            <mxPoint x="800" y="490" as="targetPoint" />
          </mxGeometry>
        </mxCell>
        <mxCell id="9B5KRaF1c3HkOnyzR9to-44" value="50" style="edgeLabel;html=1;align=center;verticalAlign=middle;resizable=0;points=[];" vertex="1" connectable="0" parent="9B5KRaF1c3HkOnyzR9to-24">
          <mxGeometry x="0.0375" y="4" relative="1" as="geometry">
            <mxPoint as="offset" />
          </mxGeometry>
        </mxCell>
        <mxCell id="9B5KRaF1c3HkOnyzR9to-25" value="" style="endArrow=none;html=1;rounded=0;" edge="1" parent="1" source="9B5KRaF1c3HkOnyzR9to-5" target="9B5KRaF1c3HkOnyzR9to-15">
          <mxGeometry width="50" height="50" relative="1" as="geometry">
            <mxPoint x="410" y="340" as="sourcePoint" />
            <mxPoint x="460" y="290" as="targetPoint" />
          </mxGeometry>
        </mxCell>
        <mxCell id="9B5KRaF1c3HkOnyzR9to-31" value="70" style="edgeLabel;html=1;align=center;verticalAlign=middle;resizable=0;points=[];" vertex="1" connectable="0" parent="9B5KRaF1c3HkOnyzR9to-25">
          <mxGeometry x="0.075" y="1" relative="1" as="geometry">
            <mxPoint as="offset" />
          </mxGeometry>
        </mxCell>
        <mxCell id="9B5KRaF1c3HkOnyzR9to-26" value="" style="endArrow=none;html=1;rounded=0;" edge="1" parent="1" source="9B5KRaF1c3HkOnyzR9to-4" target="9B5KRaF1c3HkOnyzR9to-5">
          <mxGeometry width="50" height="50" relative="1" as="geometry">
            <mxPoint x="370" y="300" as="sourcePoint" />
            <mxPoint x="420" y="250" as="targetPoint" />
          </mxGeometry>
        </mxCell>
        <mxCell id="9B5KRaF1c3HkOnyzR9to-32" value="75" style="edgeLabel;html=1;align=center;verticalAlign=middle;resizable=0;points=[];" vertex="1" connectable="0" parent="9B5KRaF1c3HkOnyzR9to-26">
          <mxGeometry x="0.0439" relative="1" as="geometry">
            <mxPoint as="offset" />
          </mxGeometry>
        </mxCell>
        <mxCell id="9B5KRaF1c3HkOnyzR9to-27" value="" style="endArrow=none;html=1;rounded=0;" edge="1" parent="1" source="9B5KRaF1c3HkOnyzR9to-1" target="9B5KRaF1c3HkOnyzR9to-4">
          <mxGeometry width="50" height="50" relative="1" as="geometry">
            <mxPoint x="360" y="350" as="sourcePoint" />
            <mxPoint x="410" y="300" as="targetPoint" />
          </mxGeometry>
        </mxCell>
        <mxCell id="9B5KRaF1c3HkOnyzR9to-33" value="75" style="edgeLabel;html=1;align=center;verticalAlign=middle;resizable=0;points=[];" vertex="1" connectable="0" parent="9B5KRaF1c3HkOnyzR9to-27">
          <mxGeometry x="0.006" y="1" relative="1" as="geometry">
            <mxPoint as="offset" />
          </mxGeometry>
        </mxCell>
        <mxCell id="9B5KRaF1c3HkOnyzR9to-28" value="" style="endArrow=none;html=1;rounded=0;" edge="1" parent="1" source="9B5KRaF1c3HkOnyzR9to-2" target="9B5KRaF1c3HkOnyzR9to-1">
          <mxGeometry width="50" height="50" relative="1" as="geometry">
            <mxPoint x="300" y="430" as="sourcePoint" />
            <mxPoint x="360" y="390" as="targetPoint" />
          </mxGeometry>
        </mxCell>
        <mxCell id="9B5KRaF1c3HkOnyzR9to-34" value="65" style="edgeLabel;html=1;align=center;verticalAlign=middle;resizable=0;points=[];" vertex="1" connectable="0" parent="9B5KRaF1c3HkOnyzR9to-28">
          <mxGeometry x="-0.0425" y="-1" relative="1" as="geometry">
            <mxPoint as="offset" />
          </mxGeometry>
        </mxCell>
        <mxCell id="9B5KRaF1c3HkOnyzR9to-29" value="" style="endArrow=none;html=1;rounded=0;" edge="1" parent="1" source="9B5KRaF1c3HkOnyzR9to-3" target="9B5KRaF1c3HkOnyzR9to-2">
          <mxGeometry width="50" height="50" relative="1" as="geometry">
            <mxPoint x="450" y="550" as="sourcePoint" />
            <mxPoint x="500" y="500" as="targetPoint" />
          </mxGeometry>
        </mxCell>
        <mxCell id="9B5KRaF1c3HkOnyzR9to-35" value="85" style="edgeLabel;html=1;align=center;verticalAlign=middle;resizable=0;points=[];" vertex="1" connectable="0" parent="9B5KRaF1c3HkOnyzR9to-29">
          <mxGeometry x="-0.2875" y="3" relative="1" as="geometry">
            <mxPoint as="offset" />
          </mxGeometry>
        </mxCell>
      </root>
    </mxGraphModel>
  </diagram>
</mxfile>
